<svg xmlns="http://www.w3.org/2000/svg" width="100" height="100" viewBox="0 0 100 100">
<title>Moon phase 29/120; north up</title>
<defs>
<clipPath id="disc"><circle cx="50" cy="50" r="46"/></clipPath>
<clipPath id="light"><polygon points="50.000,4.000 55.739,4.359 58.100,4.719 59.901,5.078 61.410,5.438 62.731,5.797 63.919,6.156 65.004,6.516 66.007,6.875 66.944,7.234 67.824,7.594 68.656,7.953 69.446,8.312 70.199,8.672 70.918,9.031 71.607,9.391 72.270,9.750 72.907,10.109 73.522,10.469 74.116,10.828 74.690,11.188 75.246,11.547 75.785,11.906 76.308,12.266 76.816,12.625 77.310,12.984 77.791,13.344 78.258,13.703 78.714,14.062 79.158,14.422 79.591,14.781 80.014,15.141 80.426,15.500 80.829,15.859 81.222,16.219 81.607,16.578 81.982,16.938 82.350,17.297 82.709,17.656 83.061,18.016 83.404,18.375 83.741,18.734 84.071,19.094 84.393,19.453 84.709,19.812 85.018,20.172 85.321,20.531 85.618,20.891 85.909,21.250 86.194,21.609 86.473,21.969 86.746,22.328 87.014,22.688 87.276,23.047 87.534,23.406 87.786,23.766 88.033,24.125 88.275,24.484 88.512,24.844 88.744,25.203 88.972,25.562 89.195,25.922 89.413,26.281 89.628,26.641 89.837,27.000 90.043,27.359 90.244,27.719 90.440,28.078 90.633,28.438 90.822,28.797 91.007,29.156 91.187,29.516 91.364,29.875 91.537,30.234 91.706,30.594 91.871,30.953 92.033,31.312 92.191,31.672 92.345,32.031 92.496,32.391 92.643,32.750 92.787,33.109 92.927,33.469 93.064,33.828 93.197,34.188 93.327,34.547 93.453,34.906 93.576,35.266 93.696,35.625 93.813,35.984 93.926,36.344 94.036,36.703 94.143,37.062 94.247,37.422 94.348,37.781 94.445,38.141 94.539,38.500 94.631,38.859 94.719,39.219 94.804,39.578 94.886,39.938 94.965,40.297 95.041,40.656 95.114,41.016 95.184,41.375 95.251,41.734 95.315,42.094 95.377,42.453 95.435,42.812 95.490,43.172 95.543,43.531 95.592,43.891 95.639,44.250 95.683,44.609 95.724,44.969 95.762,45.328 95.797,45.688 95.830,46.047 95.859,46.406 95.886,46.766 95.910,47.125 95.931,47.484 95.949,47.844 95.965,48.203 95.978,48.562 95.987,48.922 95.994,49.281 95.999,49.641 96.000,50.000 95.999,50.359 95.994,50.719 95.987,51.078 95.978,51.438 95.965,51.797 95.949,52.156 95.931,52.516 95.910,52.875 95.886,53.234 95.859,53.594 95.830,53.953 95.797,54.312 95.762,54.672 95.724,55.031 95.683,55.391 95.639,55.750 95.592,56.109 95.543,56.469 95.490,56.828 95.435,57.188 95.377,57.547 95.315,57.906 95.251,58.266 95.184,58.625 95.114,58.984 95.041,59.344 94.965,59.703 94.886,60.062 94.804,60.422 94.719,60.781 94.631,61.141 94.539,61.500 94.445,61.859 94.348,62.219 94.247,62.578 94.143,62.938 94.036,63.297 93.926,63.656 93.813,64.016 93.696,64.375 93.576,64.734 93.453,65.094 93.327,65.453 93.197,65.812 93.064,66.172 92.927,66.531 92.787,66.891 92.643,67.250 92.496,67.609 92.345,67.969 92.191,68.328 92.033,68.688 91.871,69.047 91.706,69.406 91.537,69.766 91.364,70.125 91.187,70.484 91.007,70.844 90.822,71.203 90.633,71.562 90.440,71.922 90.244,72.281 90.043,72.641 89.837,73.000 89.628,73.359 89.413,73.719 89.195,74.078 88.972,74.438 88.744,74.797 88.512,75.156 88.275,75.516 88.033,75.875 87.786,76.234 87.534,76.594 87.276,76.953 87.014,77.312 86.746,77.672 86.473,78.031 86.194,78.391 85.909,78.750 85.618,79.109 85.321,79.469 85.018,79.828 84.709,80.188 84.393,80.547 84.071,80.906 83.741,81.266 83.404,81.625 83.061,81.984 82.709,82.344 82.350,82.703 81.982,83.062 81.607,83.422 81.222,83.781 80.829,84.141 80.426,84.500 80.014,84.859 79.591,85.219 79.158,85.578 78.714,85.938 78.258,86.297 77.791,86.656 77.310,87.016 76.816,87.375 76.308,87.734 75.785,88.094 75.246,88.453 74.690,88.812 74.116,89.172 73.522,89.531 72.907,89.891 72.270,90.250 71.607,90.609 70.918,90.969 70.199,91.328 69.446,91.688 68.656,92.047 67.824,92.406 66.944,92.766 66.007,93.125 65.004,93.484 63.919,93.844 62.731,94.203 61.410,94.562 59.901,94.922 58.100,95.281 55.739,95.641 50.000,96.000 50.000,96.000 50.300,95.641 50.424,95.281 50.518,94.922 50.597,94.562 50.666,94.203 50.728,93.844 50.785,93.484 50.838,93.125 50.887,92.766 50.933,92.406 50.976,92.047 51.018,91.688 51.057,91.328 51.095,90.969 51.131,90.609 51.166,90.250 51.199,89.891 51.231,89.531 51.262,89.172 51.292,88.812 51.321,88.453 51.349,88.094 51.377,87.734 51.403,87.375 51.429,87.016 51.454,86.656 51.479,86.297 51.503,85.938 51.526,85.578 51.549,85.219 51.571,84.859 51.592,84.500 51.613,84.141 51.634,83.781 51.654,83.422 51.674,83.062 51.693,82.703 51.712,82.344 51.730,81.984 51.748,81.625 51.766,81.266 51.783,80.906 51.800,80.547 51.817,80.188 51.833,79.828 51.849,79.469 51.864,79.109 51.879,78.750 51.894,78.391 51.909,78.031 51.923,77.672 51.937,77.312 51.951,76.953 51.964,76.594 51.978,76.234 51.990,75.875 52.003,75.516 52.016,75.156 52.028,74.797 52.040,74.438 52.051,74.078 52.063,73.719 52.074,73.359 52.085,73.000 52.096,72.641 52.106,72.281 52.116,71.922 52.127,71.562 52.136,71.203 52.146,70.844 52.156,70.484 52.165,70.125 52.174,69.766 52.183,69.406 52.191,69.047 52.200,68.688 52.208,68.328 52.216,67.969 52.224,67.609 52.232,67.250 52.239,66.891 52.247,66.531 52.254,66.172 52.261,65.812 52.268,65.453 52.274,65.094 52.281,64.734 52.287,64.375 52.293,64.016 52.299,63.656 52.305,63.297 52.310,62.938 52.316,62.578 52.321,62.219 52.326,61.859 52.331,61.500 52.336,61.141 52.340,60.781 52.345,60.422 52.349,60.062 52.353,59.703 52.357,59.344 52.361,58.984 52.365,58.625 52.368,58.266 52.372,57.906 52.375,57.547 52.378,57.188 52.381,56.828 52.384,56.469 52.386,56.109 52.389,55.750 52.391,55.391 52.393,55.031 52.395,54.672 52.397,54.312 52.399,53.953 52.400,53.594 52.401,53.234 52.403,52.875 52.404,52.516 52.405,52.156 52.406,51.797 52.406,51.438 52.407,51.078 52.407,50.719 52.407,50.359 52.407,50.000 52.407,49.641 52.407,49.281 52.407,48.922 52.406,48.562 52.406,48.203 52.405,47.844 52.404,47.484 52.403,47.125 52.401,46.766 52.400,46.406 52.399,46.047 52.397,45.688 52.395,45.328 52.393,44.969 52.391,44.609 52.389,44.250 52.386,43.891 52.384,43.531 52.381,43.172 52.378,42.812 52.375,42.453 52.372,42.094 52.368,41.734 52.365,41.375 52.361,41.016 52.357,40.656 52.353,40.297 52.349,39.938 52.345,39.578 52.340,39.219 52.336,38.859 52.331,38.500 52.326,38.141 52.321,37.781 52.316,37.422 52.310,37.062 52.305,36.703 52.299,36.344 52.293,35.984 52.287,35.625 52.281,35.266 52.274,34.906 52.268,34.547 52.261,34.188 52.254,33.828 52.247,33.469 52.239,33.109 52.232,32.750 52.224,32.391 52.216,32.031 52.208,31.672 52.200,31.312 52.191,30.953 52.183,30.594 52.174,30.234 52.165,29.875 52.156,29.516 52.146,29.156 52.136,28.797 52.127,28.438 52.116,28.078 52.106,27.719 52.096,27.359 52.085,27.000 52.074,26.641 52.063,26.281 52.051,25.922 52.040,25.562 52.028,25.203 52.016,24.844 52.003,24.484 51.990,24.125 51.978,23.766 51.964,23.406 51.951,23.047 51.937,22.688 51.923,22.328 51.909,21.969 51.894,21.609 51.879,21.250 51.864,20.891 51.849,20.531 51.833,20.172 51.817,19.812 51.800,19.453 51.783,19.094 51.766,18.734 51.748,18.375 51.730,18.016 51.712,17.656 51.693,17.297 51.674,16.938 51.654,16.578 51.634,16.219 51.613,15.859 51.592,15.500 51.571,15.141 51.549,14.781 51.526,14.422 51.503,14.062 51.479,13.703 51.454,13.344 51.429,12.984 51.403,12.625 51.377,12.266 51.349,11.906 51.321,11.547 51.292,11.188 51.262,10.828 51.231,10.469 51.199,10.109 51.166,9.750 51.131,9.391 51.095,9.031 51.057,8.672 51.018,8.312 50.976,7.953 50.933,7.594 50.887,7.234 50.838,6.875 50.785,6.516 50.728,6.156 50.666,5.797 50.597,5.438 50.518,5.078 50.424,4.719 50.300,4.359 50.000,4.000"/></clipPath>
<radialGradient id="silver" cx="42%" cy="35%" r="70%">
<stop offset="0" stop-color="#f0efea"/><stop offset=".72" stop-color="#d3d6d6"/>
<stop offset="1" stop-color="#9da6b1"/></radialGradient>
</defs>
<g clip-path="url(#disc)">
<circle cx="50" cy="50" r="46" fill="#424856"/>
<g fill="#303642" opacity=".7">
<path d="M17 30 Q22 18 32 22 L38 31 Q43 37 35 45 L37 54 Q30 64 22 56 L15 45Z"/>
<path d="M37 24 Q42 17 51 21 Q58 27 53 35 Q43 40 37 32Z"/>
<path d="M55 30 Q61 23 68 28 Q73 34 68 42 L62 44 Q54 41 55 30Z"/>
<path d="M59 45 Q68 37 77 43 L81 52 Q78 60 68 61 Q58 59 56 52Z"/>
<path d="M42 49 Q49 44 55 48 Q62 57 55 63 Q44 65 39 58Z"/>
<path d="M75 31 Q80 27 84 33 L86 41 Q80 44 76 38Z"/>
<ellipse cx="32" cy="67" rx="6" ry="4"/>
</g>

<g fill="none" stroke="#687180" stroke-width="1.25" opacity=".55">
<circle cx="32" cy="46" r="4"/><circle cx="46" cy="76" r="3.2"/>
<circle cx="64" cy="70" r="2.5"/><circle cx="39" cy="15" r="2"/>
<ellipse cx="77" cy="65" rx="2" ry="3"/>
</g>
<g fill="#687180" opacity=".5"><circle cx="46" cy="76" r="1.3"/>
<circle cx="32" cy="46" r="1.3"/><circle cx="54" cy="66" r="1"/>
<circle cx="59" cy="81" r="1"/><circle cx="26" cy="60" r="1"/></g>

<g clip-path="url(#light)">
<circle cx="50" cy="50" r="46" fill="url(#silver)"/>
<g fill="#89939b" opacity=".62">
<path d="M17 30 Q22 18 32 22 L38 31 Q43 37 35 45 L37 54 Q30 64 22 56 L15 45Z"/>
<path d="M37 24 Q42 17 51 21 Q58 27 53 35 Q43 40 37 32Z"/>
<path d="M55 30 Q61 23 68 28 Q73 34 68 42 L62 44 Q54 41 55 30Z"/>
<path d="M59 45 Q68 37 77 43 L81 52 Q78 60 68 61 Q58 59 56 52Z"/>
<path d="M42 49 Q49 44 55 48 Q62 57 55 63 Q44 65 39 58Z"/>
<path d="M75 31 Q80 27 84 33 L86 41 Q80 44 76 38Z"/>
<ellipse cx="32" cy="67" rx="6" ry="4"/>
</g>

<g fill="none" stroke="#fbfaf4" stroke-width="1.25" opacity=".55">
<circle cx="32" cy="46" r="4"/><circle cx="46" cy="76" r="3.2"/>
<circle cx="64" cy="70" r="2.5"/><circle cx="39" cy="15" r="2"/>
<ellipse cx="77" cy="65" rx="2" ry="3"/>
</g>
<g fill="#fbfaf4" opacity=".5"><circle cx="46" cy="76" r="1.3"/>
<circle cx="32" cy="46" r="1.3"/><circle cx="54" cy="66" r="1"/>
<circle cx="59" cy="81" r="1"/><circle cx="26" cy="60" r="1"/></g>

</g></g>
<circle cx="50" cy="50" r="46" fill="none" stroke="#a6adbd" stroke-width="3"/>
</svg>